<svg width="560" height="466" viewBox="0 0 560 466" fill="none" xmlns="http://www.w3.org/2000/svg">
<g clip-path="url(#clip0_515_1258)">
<path d="M248.906 88.4363C248.798 88.4363 248.689 88.4324 248.58 88.4256C241.406 87.9647 216.857 84.492 202.196 59.1424C201.113 57.2713 201.327 54.8905 202.729 53.2196C214.973 43.262 224.537 32.4852 230.182 20.5106C231.202 19.2957 232.731 18.6317 234.28 18.659C235.87 18.6966 237.334 19.4451 238.299 20.7127C245.26 29.8592 259.002 46.0506 272.829 51.7274C274.383 52.366 275.508 53.6619 275.916 55.285C276.321 56.8944 275.946 58.5535 274.889 59.8368L252.896 86.5418C251.908 87.743 250.435 88.4363 248.906 88.4363Z" fill="#E6E6E6"/>
<path d="M207.268 54.8277C206.893 55.275 206.825 55.9127 207.098 56.4166C220.361 80.8394 244.073 82.7555 248.692 82.8912C249.137 82.9166 249.554 82.7164 249.836 82.3736L271.671 55.8609C271.98 55.4849 272.075 55.0055 271.933 54.5426C271.79 54.0777 271.437 53.731 270.965 53.5943C256.136 49.2603 240.576 29.1861 236.161 23.1363C235.902 22.7828 235.503 22.5709 235.067 22.5562C234.618 22.5518 234.209 22.7281 233.924 23.068C227.606 35.3867 218.76 45.9998 207.268 54.8277Z" fill="white"/>
<path d="M218.263 60.5489L238.055 40.3683C239.408 38.9888 237.289 36.8657 235.934 38.247L216.142 58.4276C214.789 59.807 216.908 61.9301 218.263 60.5489Z" fill="#E6E6E6"/>
<path d="M230.209 66.2342C235.671 61.3381 240.418 55.6692 244.305 49.4488C245.331 47.8068 242.737 46.2992 241.715 47.9346C237.957 53.9485 233.368 59.38 228.088 64.1128C226.647 65.4042 228.774 67.52 230.209 66.2342Z" fill="#E6E6E6"/>
<path d="M240.975 73.0421C245.949 67.533 250.182 61.3844 253.515 54.7519C254.38 53.0314 251.793 51.5106 250.925 53.2378C247.705 59.6459 243.66 65.5968 238.854 70.9208C237.563 72.3507 239.678 74.4789 240.975 73.0421Z" fill="#E6E6E6"/>
<path d="M266.906 96.4363C266.798 96.4363 266.689 96.4324 266.58 96.4256C259.406 95.9647 234.857 92.492 220.196 67.1424C219.113 65.2713 219.327 62.8905 220.729 61.2196C232.361 51.1307 241.119 40.0986 248.182 28.5106C249.202 27.2957 250.731 26.6317 252.28 26.659C253.87 26.6966 255.334 27.4451 256.299 28.7127C263.26 37.8592 277.002 54.0506 290.829 59.7274C292.383 60.366 293.508 61.6619 293.916 63.285C294.321 64.8944 293.946 66.5535 292.889 67.8368L270.896 94.5418C269.908 95.743 268.435 96.4363 266.906 96.4363Z" fill="#E6E6E6"/>
<path d="M225.268 62.8277C224.893 63.275 224.825 63.9127 225.098 64.4166C238.361 88.8394 262.073 90.7555 266.692 90.8912C267.137 90.9166 267.554 90.7164 267.836 90.3736L289.671 63.8609C289.98 63.4849 290.075 63.0055 289.933 62.5426C289.79 62.0777 289.437 61.731 288.965 61.5943C274.136 57.2603 258.576 37.1861 254.161 31.1363C253.902 30.7828 253.503 30.5709 253.067 30.5562C252.618 30.5518 252.209 30.7281 251.924 31.068C244.355 43.6442 235.841 54.7923 225.268 62.8277Z" fill="white"/>
<path d="M236.263 68.5489L256.055 48.3683C257.408 46.9888 255.289 44.8657 253.934 46.247L234.142 66.4276C232.789 67.807 234.908 69.9301 236.263 68.5489Z" fill="#E6E6E6"/>
<path d="M248.209 74.2342C253.671 69.3381 258.418 63.6692 262.305 57.4488C263.331 55.8068 260.737 54.2992 259.715 55.9346C255.957 61.9485 251.368 67.38 246.088 72.1128C244.647 73.4042 246.774 75.52 248.209 74.2342Z" fill="#E6E6E6"/>
<path d="M258.975 81.0421C263.949 75.533 268.182 69.3844 271.515 62.7519C272.38 61.0314 269.793 59.5106 268.925 61.2378C265.705 67.6459 261.66 73.5968 256.854 78.9208C255.563 80.3507 257.678 82.4789 258.975 81.0421Z" fill="#E6E6E6"/>
<path d="M463.906 282.436C463.798 282.436 463.689 282.432 463.581 282.426C456.406 281.965 431.857 278.492 417.196 253.142C416.113 251.271 416.327 248.89 417.729 247.22L445.182 214.511C446.202 213.296 447.731 212.632 449.28 212.659C450.87 212.697 452.91 213.168 453.299 214.713C456.462 227.265 470.083 243.565 487.829 245.727C489.497 245.931 490.508 247.662 490.916 249.285C491.321 250.894 490.946 252.554 489.889 253.837L467.896 280.542C466.908 281.743 465.435 282.436 463.906 282.436Z" fill="#E6E6E6"/>
<path d="M422.268 248.828C421.893 249.275 421.825 249.913 422.098 250.417C435.361 274.839 459.073 276.755 463.692 276.891C464.137 276.917 464.554 276.716 464.836 276.374L486.671 249.861C486.98 249.485 487.075 249.005 486.933 248.543C486.79 248.078 486.456 247.617 485.965 247.594C467.089 246.709 451.927 226.296 451.161 217.136C451.124 216.7 450.503 216.571 450.067 216.556C449.618 216.552 449.209 216.728 448.924 217.068L422.268 248.828Z" fill="white"/>
<path d="M433.263 254.549L453.055 234.368C454.408 232.989 452.289 230.866 450.934 232.247L431.142 252.428C429.789 253.807 431.908 255.93 433.263 254.549Z" fill="#E6E6E6"/>
<path d="M445.209 260.234C450.671 255.338 455.418 249.669 459.305 243.449C460.331 241.807 457.737 240.299 456.715 241.935C452.957 247.948 448.368 253.38 443.088 258.113C441.647 259.404 443.774 261.52 445.209 260.234Z" fill="#E6E6E6"/>
<path d="M455.975 267.042C460.949 261.533 465.182 255.384 468.515 248.752C469.38 247.031 466.793 245.511 465.925 247.238C462.705 253.646 458.66 259.597 453.854 264.921C452.563 266.351 454.678 268.479 455.975 267.042Z" fill="#E6E6E6"/>
<path d="M381.662 456.789L369.803 456.788L364.162 411.045L381.665 411.046L381.662 456.789Z" fill="#FFB6B6"/>
<path d="M341.031 456.52C340.662 457.142 340.467 459.149 340.467 459.872C340.467 462.095 342.269 463.897 344.492 463.897H381.219C382.735 463.897 383.965 462.668 383.965 461.151V459.622C383.965 459.622 385.781 455.026 382.041 449.362C382.041 449.362 377.392 453.797 370.445 446.851L368.397 443.14L353.568 453.984L345.349 454.996C343.551 455.217 341.956 454.962 341.031 456.52Z" fill="black"/>
<path d="M491.172 433.386L481.07 439.599L452.297 403.594L467.206 394.424L491.172 433.386Z" fill="#FFB6B6"/>
<path d="M456.424 454.446C456.436 455.169 457.321 456.981 457.7 457.597C458.865 459.49 461.344 460.081 463.238 458.916L494.519 439.672C495.81 438.878 496.213 437.186 495.419 435.895L494.617 434.592C494.617 434.592 493.757 429.726 487.603 426.862C487.603 426.862 485.967 433.075 476.411 430.799L472.721 428.711L465.774 445.718L459.304 450.886C457.888 452.017 456.396 452.635 456.424 454.446Z" fill="black"/>
<path d="M416.634 242.841C416.047 240.281 416.092 237.795 416.642 235.735L409.497 211.708L421.131 208.553L427.127 233.267C428.517 234.869 429.638 237.08 430.225 239.641C431.566 245.491 429.611 250.949 425.858 251.833C422.105 252.717 417.975 248.691 416.634 242.841Z" fill="#FFB6B6"/>
<path d="M350.438 82.6791C350.438 82.6791 369.187 74.5183 379.656 86.3113C389.185 97.0455 408.529 129.346 406.543 132.489L425.587 222.473L411.471 226.822L374.026 123.319L350.438 82.6791Z" fill="#141414"/>
<path d="M329.789 216.033L339.449 328.736L362.795 433.389L387.75 430.974L375.675 316.661L383.066 215.07L329.789 216.033Z" fill="black"/>
<path d="M331.786 240.487L391.955 336.274L460.608 418.639L481.691 405.07L418.638 308.958C408.988 266.621 398.301 227.431 378.716 215.249L331.786 240.487Z" fill="black"/>
<path d="M335.297 240.956C332.475 240.956 329.741 239.962 327.514 238.073C324.524 235.537 322.966 231.84 323.24 227.93L328.489 177.572L326.484 122.581L326.496 122.521L332.728 92.6387C332.789 91.689 332.989 90.6836 333.31 89.7183L342.514 62.0454C344.169 57.0679 348.805 53.7236 354.051 53.7236H362.19C366.265 53.7236 370.047 55.7476 372.307 59.1382L379.432 69.8257C379.906 70.5356 380.305 71.2979 380.619 72.0913L396.349 111.79C396.848 113.05 397.132 114.376 397.193 115.73L402.073 225.905C402.236 229.563 400.764 233.063 398.036 235.509C395.325 237.94 391.708 239.016 388.121 238.462C367.581 235.29 349.605 237.884 338.14 240.619C337.193 240.845 336.24 240.956 335.297 240.956Z" fill="#141414"/>
<path d="M333.009 131.506L319.324 121.041C319.324 121.041 325.764 63.8839 342.669 63.8839C359.575 63.8839 368.43 54.2236 368.43 54.2236C368.43 54.2236 428.807 138.751 411.901 148.411C394.996 158.072 371.65 153.241 371.65 153.241L363.428 81.0326C362.417 77.2155 357.164 76.8022 355.569 80.4143L333.009 131.506Z" fill="#141414"/>
<path d="M355.523 51.2603C368.447 51.2603 378.923 40.7837 378.923 27.8601C378.923 14.9366 368.447 4.45996 355.523 4.45996C342.599 4.45996 332.123 14.9366 332.123 27.8601C332.123 40.7837 342.599 51.2603 355.523 51.2603Z" fill="#FFB6B6"/>
<path d="M374.054 45.5501C371.943 46.3383 368.706 47.5637 366.596 48.3518C364.627 44.4275 367.039 42.3911 367.289 38.0078C367.373 36.545 367.584 35.0807 367.463 33.6205C367.342 32.1603 366.84 30.6615 365.738 29.6953C364.053 28.2174 361.247 28.4577 359.616 29.9949C357.985 31.532 357.52 34.0719 358.187 36.2117C351.771 33.4382 347.626 26.1618 348.512 19.2283C346.596 18.4772 344.631 17.716 342.574 17.6585C340.517 17.601 338.313 18.3861 337.216 20.1279C336.448 21.3493 336.294 22.8997 335.431 24.0566C334.03 25.9364 331 26.082 329.139 24.6561C327.277 23.2302 326.565 20.6389 326.962 18.3278C327.359 16.0168 324.47 11.3005 326.087 9.60241C327.19 8.444 332.666 10.0854 333.896 9.0635C335.019 8.1312 336.146 7.19581 337.384 6.42237C338.955 5.44061 340.695 4.72964 342.503 4.33014C344.215 3.95225 345.973 3.85299 347.723 3.75494C349.499 3.65539 351.956 0.118629 353.732 0.0190786C358.962 -0.274001 363.636 2.88385 368.653 4.38728C373.67 5.89071 376.827 10.208 379.604 14.6489C383.56 20.9746 382.215 27.9058 379.491 33.9543C378.818 35.4495 381.077 37.0206 380.743 38.6258C380.432 40.1179 379.034 41.1986 378.707 42.6874C378.428 43.9604 376.776 42.4855 376.382 43.7278C376.041 44.7998 375.039 45.5567 373.968 45.8989C372.896 46.241 371.749 46.2341 370.625 46.2239" fill="black"/>
<path d="M369.03 53.623L369.855 54.2235L371.934 55.7373C378.186 60.2885 377.604 69.7889 370.845 73.5441L362.392 60.0425" fill="#141414"/>
<path d="M505.027 448.046C507.093 448.175 508.235 445.608 506.672 444.112L506.516 443.494C506.537 443.445 506.557 443.395 506.578 443.346C508.667 438.364 515.748 438.398 517.819 443.387C519.658 447.816 521.999 452.251 522.575 456.933C522.834 459 522.717 461.106 522.259 463.134C526.567 453.723 528.834 443.447 528.834 433.113C528.834 430.517 528.692 427.92 528.401 425.33C528.162 423.212 527.833 421.106 527.406 419.02C525.101 407.743 520.108 397.002 512.906 388.03C509.444 386.138 506.557 383.18 504.813 379.634C504.187 378.355 503.696 376.979 503.463 375.577C503.857 375.629 504.949 369.629 504.652 369.261C505.201 368.427 506.184 368.013 506.783 367.2C509.766 363.157 513.874 363.863 516.019 369.358C520.602 371.67 520.646 375.506 517.834 379.194C516.046 381.541 515.8 384.717 514.23 387.229C514.392 387.436 514.56 387.636 514.721 387.843C517.682 391.641 520.243 395.723 522.402 400.011C521.792 395.245 522.693 389.503 524.229 385.802C525.977 381.585 529.254 378.033 532.139 374.387C535.605 370.008 542.713 371.919 543.323 377.47C543.329 377.524 543.335 377.578 543.34 377.631C542.912 377.873 542.492 378.13 542.082 378.401C539.742 379.948 540.551 383.575 543.323 384.003L543.386 384.013C543.231 385.556 542.966 387.087 542.578 388.592C546.28 402.908 538.288 408.122 526.877 408.356C526.625 408.485 526.379 408.615 526.128 408.737C527.284 411.993 528.207 415.332 528.892 418.716C529.506 421.707 529.932 424.729 530.171 427.765C530.468 431.595 530.442 435.445 530.119 439.268L530.138 439.133C530.959 434.922 533.245 430.988 536.565 428.262C541.511 424.2 548.498 422.704 553.833 419.438C556.402 417.866 559.693 419.898 559.245 422.875L559.223 423.018C558.428 423.341 557.653 423.715 556.904 424.135C556.475 424.377 556.056 424.634 555.645 424.905C553.306 426.452 554.114 430.079 556.886 430.507L556.949 430.517C556.994 430.523 557.033 430.53 557.078 430.536C555.716 433.772 553.817 436.775 551.44 439.365C549.125 451.862 539.184 453.048 528.55 449.409H528.543C527.381 454.473 525.682 459.42 523.499 464.135H505.479C505.414 463.935 505.356 463.728 505.298 463.528C506.964 463.631 508.643 463.534 510.284 463.231C508.947 461.59 507.61 459.937 506.273 458.296C506.241 458.264 506.215 458.232 506.189 458.199C505.511 457.36 504.826 456.526 504.148 455.687L504.148 455.686C504.105 453.108 504.415 450.539 505.027 448.046Z" fill="#F2F2F2"/>
<path d="M193.476 464.189C193.476 464.849 194.006 465.379 194.666 465.379H557.956C558.616 465.379 559.146 464.849 559.146 464.189C559.146 463.529 558.616 462.999 557.956 462.999H194.666C194.006 462.999 193.476 463.529 193.476 464.189Z" fill="#CCCCCC"/>
<path d="M251.018 81.472C253.129 82.8646 254.749 84.6183 255.735 86.4075L276.676 98.4039L270.676 108.201L250.08 94.9774C248.047 94.7746 245.797 93.9741 243.687 92.5815C238.866 89.4002 236.599 84.3342 238.624 81.2664C240.648 78.1986 246.198 78.2906 251.018 81.472Z" fill="#FFB6B6"/>
<path d="M349.545 68.8256C362.899 60.6359 376.319 79.3909 364.445 89.6095L364.405 89.6443L316.962 134.266L260.185 106.228L265.799 91.0897L309.787 108.515L342.785 74.2591C345.082 71.9593 347.342 70.1769 349.545 68.8256Z" fill="#141414"/>
<path d="M68.2949 143.332C67.1919 143.332 66.2949 144.229 66.2949 145.332V176.332C66.2949 177.435 67.1919 178.332 68.2949 178.332C69.398 178.332 70.2949 177.435 70.2949 176.332V145.332C70.2949 144.229 69.398 143.332 68.2949 143.332Z" fill="#141414"/>
<path d="M87.8961 173.203C94.7794 173.203 100.359 167.74 100.359 161.002C100.359 154.264 94.7794 148.801 87.8961 148.801C81.0129 148.801 75.4329 154.264 75.4329 161.002C75.4329 167.74 81.0129 173.203 87.8961 173.203Z" fill="#141414"/>
<path d="M187.809 156.828H120.724C118.423 156.828 116.55 154.955 116.55 152.654C116.55 150.352 118.423 148.48 120.724 148.48H187.809C190.11 148.48 191.983 150.352 191.983 152.654C191.983 154.955 190.11 156.828 187.809 156.828Z" fill="#F2F2F2"/>
<path d="M240.162 170.955H120.724C118.423 170.955 116.55 169.082 116.55 166.781C116.55 164.479 118.423 162.607 120.724 162.607H240.162C242.464 162.607 244.336 164.479 244.336 166.781C244.336 169.082 242.464 170.955 240.162 170.955Z" fill="#F2F2F2"/>
<path d="M12.4633 239.183C19.3466 239.183 24.9266 233.721 24.9266 226.982C24.9266 220.244 19.3466 214.782 12.4633 214.782C5.58 214.782 0 220.244 0 226.982C0 233.721 5.58 239.183 12.4633 239.183Z" fill="#141414"/>
<path d="M112.376 222.808H45.2911C42.9897 222.808 41.1172 220.936 41.1172 218.634C41.1172 216.333 42.9897 214.46 45.2911 214.46H112.376C114.677 214.46 116.55 216.333 116.55 218.634C116.55 220.936 114.677 222.808 112.376 222.808Z" fill="#F2F2F2"/>
<path d="M129.521 279.193C136.404 279.193 141.984 273.73 141.984 266.992C141.984 260.254 136.404 254.792 129.521 254.792C122.638 254.792 117.058 260.254 117.058 266.992C117.058 273.73 122.638 279.193 129.521 279.193Z" fill="#141414"/>
<path d="M281.787 276.945H162.349C160.048 276.945 158.175 275.073 158.175 272.772C158.175 270.47 160.048 268.598 162.349 268.598H281.788C284.089 268.598 285.961 270.47 285.961 272.772C285.961 275.073 284.089 276.945 281.787 276.945Z" fill="#F2F2F2"/>
<path d="M252.28 51.0605C259.163 51.0605 264.743 45.5981 264.743 38.8599C264.743 32.1216 259.163 26.6592 252.28 26.6592C245.396 26.6592 239.816 32.1216 239.816 38.8599C239.816 45.5981 245.396 51.0605 252.28 51.0605Z" fill="#141414"/>
<path d="M481.692 255.599C488.575 255.599 494.155 250.136 494.155 243.398C494.155 236.66 488.575 231.197 481.692 231.197C474.808 231.197 469.228 236.66 469.228 243.398C469.228 250.136 474.808 255.599 481.692 255.599Z" fill="#141414"/>
<path d="M90.1477 380V368.364H94.5114C95.4053 368.364 96.1553 368.53 96.7614 368.864C97.3712 369.197 97.8314 369.655 98.142 370.239C98.4564 370.818 98.6136 371.477 98.6136 372.216C98.6136 372.962 98.4564 373.625 98.142 374.205C97.8277 374.784 97.3636 375.241 96.75 375.574C96.1364 375.903 95.3807 376.068 94.483 376.068H91.5909V374.335H94.1989C94.7216 374.335 95.1496 374.244 95.483 374.062C95.8163 373.881 96.0625 373.631 96.2216 373.312C96.3845 372.994 96.4659 372.629 96.4659 372.216C96.4659 371.803 96.3845 371.439 96.2216 371.125C96.0625 370.811 95.8144 370.566 95.4773 370.392C95.1439 370.214 94.714 370.125 94.1875 370.125H92.2557V380H90.1477ZM102.411 368.364V380H100.354V368.364H102.411ZM108.389 380.17C107.514 380.17 106.759 379.989 106.122 379.625C105.49 379.258 105.003 378.739 104.662 378.068C104.321 377.394 104.151 376.6 104.151 375.688C104.151 374.79 104.321 374.002 104.662 373.324C105.007 372.642 105.488 372.112 106.105 371.733C106.723 371.35 107.448 371.159 108.281 371.159C108.819 371.159 109.327 371.246 109.804 371.42C110.285 371.591 110.709 371.856 111.077 372.216C111.448 372.576 111.74 373.034 111.952 373.591C112.164 374.144 112.27 374.803 112.27 375.568V376.199H105.116V374.812H110.298C110.295 374.419 110.209 374.068 110.043 373.761C109.876 373.451 109.643 373.206 109.344 373.028C109.048 372.85 108.704 372.761 108.31 372.761C107.889 372.761 107.52 372.864 107.202 373.068C106.884 373.269 106.635 373.534 106.457 373.864C106.283 374.189 106.194 374.547 106.19 374.938V376.148C106.19 376.655 106.283 377.091 106.469 377.455C106.654 377.814 106.914 378.091 107.247 378.284C107.58 378.473 107.971 378.568 108.418 378.568C108.717 378.568 108.988 378.527 109.23 378.443C109.473 378.356 109.683 378.229 109.861 378.062C110.039 377.896 110.173 377.689 110.264 377.443L112.185 377.659C112.063 378.167 111.832 378.61 111.491 378.989C111.154 379.364 110.723 379.655 110.196 379.864C109.67 380.068 109.067 380.17 108.389 380.17ZM116.521 380.176C115.968 380.176 115.47 380.078 115.027 379.881C114.588 379.68 114.239 379.384 113.982 378.994C113.728 378.604 113.601 378.123 113.601 377.551C113.601 377.059 113.692 376.652 113.874 376.33C114.055 376.008 114.304 375.75 114.618 375.557C114.932 375.364 115.286 375.218 115.68 375.119C116.078 375.017 116.489 374.943 116.913 374.898C117.425 374.845 117.839 374.797 118.158 374.756C118.476 374.71 118.707 374.642 118.851 374.551C118.999 374.456 119.072 374.311 119.072 374.114V374.08C119.072 373.652 118.946 373.32 118.692 373.085C118.438 372.85 118.072 372.733 117.595 372.733C117.091 372.733 116.692 372.843 116.396 373.062C116.105 373.282 115.908 373.542 115.805 373.841L113.885 373.568C114.036 373.038 114.286 372.595 114.635 372.239C114.983 371.879 115.41 371.61 115.913 371.432C116.417 371.25 116.974 371.159 117.584 371.159C118.004 371.159 118.423 371.208 118.839 371.307C119.256 371.405 119.637 371.568 119.982 371.795C120.326 372.019 120.603 372.324 120.811 372.71C121.023 373.097 121.129 373.58 121.129 374.159V380H119.152V378.801H119.084C118.959 379.044 118.783 379.271 118.555 379.483C118.332 379.691 118.05 379.86 117.709 379.989C117.372 380.114 116.976 380.176 116.521 380.176ZM117.055 378.665C117.468 378.665 117.826 378.583 118.129 378.42C118.432 378.254 118.665 378.034 118.828 377.761C118.995 377.489 119.078 377.191 119.078 376.869V375.841C119.014 375.894 118.904 375.943 118.749 375.989C118.597 376.034 118.427 376.074 118.237 376.108C118.048 376.142 117.86 376.172 117.675 376.199C117.489 376.225 117.328 376.248 117.192 376.267C116.885 376.309 116.61 376.377 116.368 376.472C116.125 376.566 115.934 376.699 115.794 376.869C115.654 377.036 115.584 377.252 115.584 377.517C115.584 377.896 115.722 378.182 115.999 378.375C116.275 378.568 116.627 378.665 117.055 378.665ZM130.095 373.58L128.22 373.784C128.167 373.595 128.074 373.417 127.942 373.25C127.813 373.083 127.639 372.949 127.419 372.847C127.199 372.744 126.93 372.693 126.612 372.693C126.184 372.693 125.824 372.786 125.533 372.972C125.245 373.157 125.103 373.398 125.107 373.693C125.103 373.947 125.196 374.153 125.385 374.312C125.578 374.472 125.896 374.602 126.339 374.705L127.828 375.023C128.654 375.201 129.268 375.483 129.669 375.869C130.074 376.256 130.279 376.761 130.283 377.386C130.279 377.936 130.118 378.42 129.8 378.841C129.485 379.258 129.048 379.583 128.487 379.818C127.927 380.053 127.283 380.17 126.555 380.17C125.487 380.17 124.627 379.947 123.976 379.5C123.324 379.049 122.936 378.422 122.811 377.619L124.817 377.426C124.908 377.82 125.101 378.117 125.396 378.318C125.692 378.519 126.076 378.619 126.55 378.619C127.038 378.619 127.43 378.519 127.726 378.318C128.025 378.117 128.175 377.869 128.175 377.574C128.175 377.324 128.078 377.117 127.885 376.955C127.696 376.792 127.4 376.667 126.999 376.58L125.51 376.267C124.673 376.093 124.054 375.799 123.652 375.386C123.25 374.97 123.052 374.443 123.055 373.807C123.052 373.269 123.197 372.803 123.493 372.409C123.792 372.011 124.207 371.705 124.737 371.489C125.271 371.269 125.887 371.159 126.584 371.159C127.607 371.159 128.411 371.377 128.999 371.812C129.589 372.248 129.955 372.837 130.095 373.58ZM135.842 380.17C134.967 380.17 134.212 379.989 133.575 379.625C132.943 379.258 132.456 378.739 132.115 378.068C131.774 377.394 131.604 376.6 131.604 375.688C131.604 374.79 131.774 374.002 132.115 373.324C132.46 372.642 132.941 372.112 133.558 371.733C134.176 371.35 134.901 371.159 135.734 371.159C136.272 371.159 136.78 371.246 137.257 371.42C137.738 371.591 138.162 371.856 138.53 372.216C138.901 372.576 139.193 373.034 139.405 373.591C139.617 374.144 139.723 374.803 139.723 375.568V376.199H132.57V374.812H137.751C137.748 374.419 137.662 374.068 137.496 373.761C137.329 373.451 137.096 373.206 136.797 373.028C136.501 372.85 136.157 372.761 135.763 372.761C135.342 372.761 134.973 372.864 134.655 373.068C134.337 373.269 134.089 373.534 133.911 373.864C133.736 374.189 133.647 374.547 133.643 374.938V376.148C133.643 376.655 133.736 377.091 133.922 377.455C134.107 377.814 134.367 378.091 134.7 378.284C135.034 378.473 135.424 378.568 135.871 378.568C136.17 378.568 136.441 378.527 136.683 378.443C136.926 378.356 137.136 378.229 137.314 378.062C137.492 377.896 137.626 377.689 137.717 377.443L139.638 377.659C139.517 378.167 139.286 378.61 138.945 378.989C138.607 379.364 138.176 379.655 137.649 379.864C137.123 380.068 136.52 380.17 135.842 380.17ZM151.847 371.562C151.794 371.066 151.57 370.68 151.176 370.403C150.786 370.127 150.278 369.989 149.653 369.989C149.214 369.989 148.837 370.055 148.523 370.188C148.208 370.32 147.968 370.5 147.801 370.727C147.634 370.955 147.549 371.214 147.545 371.506C147.545 371.748 147.6 371.958 147.71 372.136C147.824 372.314 147.977 372.466 148.17 372.591C148.364 372.712 148.578 372.814 148.812 372.898C149.047 372.981 149.284 373.051 149.523 373.108L150.614 373.381C151.053 373.483 151.475 373.621 151.881 373.795C152.29 373.97 152.655 374.189 152.977 374.455C153.303 374.72 153.561 375.04 153.75 375.415C153.939 375.79 154.034 376.229 154.034 376.733C154.034 377.415 153.86 378.015 153.511 378.534C153.163 379.049 152.659 379.453 152 379.744C151.345 380.032 150.551 380.176 149.619 380.176C148.714 380.176 147.928 380.036 147.261 379.756C146.598 379.475 146.08 379.066 145.705 378.528C145.333 377.991 145.133 377.335 145.102 376.562H147.176C147.206 376.968 147.331 377.305 147.551 377.574C147.771 377.843 148.057 378.044 148.409 378.176C148.765 378.309 149.163 378.375 149.602 378.375C150.061 378.375 150.462 378.307 150.807 378.17C151.155 378.03 151.428 377.837 151.625 377.591C151.822 377.341 151.922 377.049 151.926 376.716C151.922 376.413 151.833 376.163 151.659 375.966C151.485 375.765 151.241 375.598 150.926 375.466C150.616 375.33 150.252 375.208 149.835 375.102L148.511 374.761C147.553 374.515 146.795 374.142 146.239 373.642C145.686 373.138 145.409 372.47 145.409 371.636C145.409 370.951 145.595 370.35 145.966 369.835C146.341 369.32 146.85 368.92 147.494 368.636C148.138 368.348 148.867 368.205 149.682 368.205C150.508 368.205 151.231 368.348 151.852 368.636C152.477 368.92 152.968 369.316 153.324 369.824C153.68 370.328 153.864 370.907 153.875 371.562H151.847ZM159.686 380.17C158.811 380.17 158.055 379.989 157.419 379.625C156.786 379.258 156.3 378.739 155.959 378.068C155.618 377.394 155.447 376.6 155.447 375.688C155.447 374.79 155.618 374.002 155.959 373.324C156.304 372.642 156.785 372.112 157.402 371.733C158.019 371.35 158.745 371.159 159.578 371.159C160.116 371.159 160.624 371.246 161.101 371.42C161.582 371.591 162.006 371.856 162.374 372.216C162.745 372.576 163.036 373.034 163.249 373.591C163.461 374.144 163.567 374.803 163.567 375.568V376.199H156.413V374.812H161.595C161.591 374.419 161.506 374.068 161.339 373.761C161.173 373.451 160.94 373.206 160.641 373.028C160.345 372.85 160 372.761 159.607 372.761C159.186 372.761 158.817 372.864 158.499 373.068C158.18 373.269 157.932 373.534 157.754 373.864C157.58 374.189 157.491 374.547 157.487 374.938V376.148C157.487 376.655 157.58 377.091 157.766 377.455C157.951 377.814 158.211 378.091 158.544 378.284C158.877 378.473 159.268 378.568 159.714 378.568C160.014 378.568 160.285 378.527 160.527 378.443C160.769 378.356 160.98 378.229 161.158 378.062C161.336 377.896 161.47 377.689 161.561 377.443L163.482 377.659C163.36 378.167 163.129 378.61 162.788 378.989C162.451 379.364 162.019 379.655 161.493 379.864C160.966 380.068 160.364 380.17 159.686 380.17ZM167.364 368.364V380H165.307V368.364H167.364ZM173.342 380.17C172.467 380.17 171.712 379.989 171.075 379.625C170.443 379.258 169.956 378.739 169.615 378.068C169.274 377.394 169.104 376.6 169.104 375.688C169.104 374.79 169.274 374.002 169.615 373.324C169.96 372.642 170.441 372.112 171.058 371.733C171.676 371.35 172.401 371.159 173.234 371.159C173.772 371.159 174.28 371.246 174.757 371.42C175.238 371.591 175.662 371.856 176.03 372.216C176.401 372.576 176.693 373.034 176.905 373.591C177.117 374.144 177.223 374.803 177.223 375.568V376.199H170.07V374.812H175.251C175.248 374.419 175.162 374.068 174.996 373.761C174.829 373.451 174.596 373.206 174.297 373.028C174.001 372.85 173.657 372.761 173.263 372.761C172.842 372.761 172.473 372.864 172.155 373.068C171.837 373.269 171.589 373.534 171.411 373.864C171.236 374.189 171.147 374.547 171.143 374.938V376.148C171.143 376.655 171.236 377.091 171.422 377.455C171.607 377.814 171.867 378.091 172.2 378.284C172.534 378.473 172.924 378.568 173.371 378.568C173.67 378.568 173.941 378.527 174.183 378.443C174.426 378.356 174.636 378.229 174.814 378.062C174.992 377.896 175.126 377.689 175.217 377.443L177.138 377.659C177.017 378.167 176.786 378.61 176.445 378.989C176.107 379.364 175.676 379.655 175.149 379.864C174.623 380.068 174.02 380.17 173.342 380.17ZM182.77 380.17C181.899 380.17 181.151 379.979 180.526 379.597C179.904 379.214 179.425 378.686 179.088 378.011C178.755 377.333 178.588 376.553 178.588 375.67C178.588 374.784 178.759 374.002 179.099 373.324C179.44 372.642 179.921 372.112 180.543 371.733C181.168 371.35 181.906 371.159 182.759 371.159C183.467 371.159 184.094 371.29 184.639 371.551C185.188 371.809 185.626 372.174 185.952 372.648C186.277 373.117 186.463 373.667 186.509 374.295H184.543C184.463 373.875 184.274 373.525 183.974 373.244C183.679 372.96 183.283 372.818 182.787 372.818C182.366 372.818 181.997 372.932 181.679 373.159C181.361 373.383 181.113 373.705 180.935 374.125C180.76 374.545 180.673 375.049 180.673 375.636C180.673 376.231 180.76 376.742 180.935 377.17C181.109 377.595 181.353 377.922 181.668 378.153C181.986 378.381 182.359 378.494 182.787 378.494C183.09 378.494 183.361 378.437 183.599 378.324C183.842 378.206 184.045 378.038 184.207 377.818C184.37 377.598 184.482 377.331 184.543 377.017H186.509C186.459 377.634 186.277 378.182 185.963 378.659C185.649 379.133 185.221 379.504 184.679 379.773C184.137 380.038 183.501 380.17 182.77 380.17ZM192.555 371.273V372.864H187.538V371.273H192.555ZM188.777 369.182H190.834V377.375C190.834 377.652 190.875 377.864 190.959 378.011C191.046 378.155 191.16 378.254 191.3 378.307C191.44 378.36 191.595 378.386 191.766 378.386C191.894 378.386 192.012 378.377 192.118 378.358C192.228 378.339 192.311 378.322 192.368 378.307L192.714 379.915C192.605 379.953 192.447 379.994 192.243 380.04C192.042 380.085 191.796 380.112 191.504 380.119C190.989 380.134 190.525 380.057 190.112 379.886C189.699 379.712 189.372 379.443 189.129 379.08C188.891 378.716 188.773 378.261 188.777 377.716V369.182ZM202.278 380H198.335V368.364H202.358C203.513 368.364 204.506 368.597 205.335 369.062C206.169 369.525 206.809 370.189 207.256 371.057C207.703 371.924 207.926 372.962 207.926 374.17C207.926 375.383 207.701 376.424 207.25 377.295C206.803 378.167 206.157 378.835 205.312 379.301C204.472 379.767 203.46 380 202.278 380ZM200.443 378.176H202.176C202.987 378.176 203.663 378.028 204.205 377.733C204.746 377.434 205.153 376.989 205.426 376.398C205.699 375.803 205.835 375.061 205.835 374.17C205.835 373.28 205.699 372.542 205.426 371.955C205.153 371.364 204.75 370.922 204.216 370.631C203.686 370.335 203.027 370.188 202.239 370.188H200.443V378.176ZM212.349 380.176C211.796 380.176 211.298 380.078 210.855 379.881C210.416 379.68 210.067 379.384 209.81 378.994C209.556 378.604 209.429 378.123 209.429 377.551C209.429 377.059 209.52 376.652 209.702 376.33C209.884 376.008 210.132 375.75 210.446 375.557C210.76 375.364 211.115 375.218 211.509 375.119C211.906 375.017 212.317 374.943 212.741 374.898C213.253 374.845 213.668 374.797 213.986 374.756C214.304 374.71 214.535 374.642 214.679 374.551C214.827 374.456 214.901 374.311 214.901 374.114V374.08C214.901 373.652 214.774 373.32 214.52 373.085C214.266 372.85 213.901 372.733 213.423 372.733C212.92 372.733 212.52 372.843 212.224 373.062C211.933 373.282 211.736 373.542 211.634 373.841L209.713 373.568C209.865 373.038 210.115 372.595 210.463 372.239C210.812 371.879 211.238 371.61 211.741 371.432C212.245 371.25 212.802 371.159 213.412 371.159C213.832 371.159 214.251 371.208 214.668 371.307C215.084 371.405 215.465 371.568 215.81 371.795C216.154 372.019 216.431 372.324 216.639 372.71C216.851 373.097 216.957 373.58 216.957 374.159V380H214.98V378.801H214.912C214.787 379.044 214.611 379.271 214.384 379.483C214.16 379.691 213.878 379.86 213.537 379.989C213.2 380.114 212.804 380.176 212.349 380.176ZM212.884 378.665C213.296 378.665 213.654 378.583 213.957 378.42C214.26 378.254 214.493 378.034 214.656 377.761C214.823 377.489 214.906 377.191 214.906 376.869V375.841C214.842 375.894 214.732 375.943 214.577 375.989C214.425 376.034 214.255 376.074 214.065 376.108C213.876 376.142 213.688 376.172 213.503 376.199C213.317 376.225 213.156 376.248 213.02 376.267C212.713 376.309 212.438 376.377 212.196 376.472C211.954 376.566 211.762 376.699 211.622 376.869C211.482 377.036 211.412 377.252 211.412 377.517C211.412 377.896 211.55 378.182 211.827 378.375C212.103 378.568 212.455 378.665 212.884 378.665ZM219.991 383.273C219.711 383.273 219.452 383.25 219.213 383.205C218.978 383.163 218.791 383.114 218.651 383.057L219.128 381.455C219.427 381.542 219.694 381.583 219.929 381.58C220.164 381.576 220.37 381.502 220.548 381.358C220.73 381.218 220.884 380.983 221.009 380.653L221.185 380.182L218.02 371.273H220.202L222.213 377.864H222.304L224.321 371.273H226.509L223.014 381.057C222.851 381.519 222.635 381.915 222.366 382.244C222.098 382.578 221.768 382.831 221.378 383.006C220.991 383.184 220.529 383.273 219.991 383.273Z" fill="#141414"/>
</g>
<defs>
<clipPath id="clip0_515_1258">
<rect width="559.286" height="465.379" fill="white"/>
</clipPath>
</defs>
</svg>
