<svg width="931" height="1024" viewBox="0 0 931 1024" fill="none" xmlns="http://www.w3.org/2000/svg">
<path fill-rule="evenodd" clip-rule="evenodd" d="M311.145 431.011C308.654 434.012 309.262 435.761 327.22 477.21C336.068 497.63 346.666 522.144 350.772 531.684C354.88 541.224 359.34 551.215 360.684 553.886L363.129 558.743H418.63C470.012 558.743 474.644 558.546 481.031 556.082C501.855 548.051 513.175 522.813 505.303 501.963C501.555 492.034 493.366 482.784 483.901 477.793C477.032 474.17 476.319 474.092 443.836 473.407C413.146 472.76 410.623 472.516 408.799 470.017C406.222 466.488 406.319 464.624 409.261 461.04L411.689 458.082L482.968 458.458L554.246 458.834L556.923 465.772C567.114 492.183 593.792 555.172 595.858 557.702C597.334 559.509 615.56 560.19 619.718 558.594C620.925 558.131 621.913 556.349 621.913 554.634C621.913 552.262 586.121 466.278 572.679 436.359C571.196 433.057 569.518 431.707 566.119 431.083C563.607 430.621 526.896 430.432 484.539 430.662C409.523 431.07 407.361 431.158 401.185 434.015C392.108 438.214 385.441 445.668 382.554 454.844C377.046 472.362 384.607 489.332 401.282 496.881C406.947 499.445 410.355 499.71 438.054 499.744C472.467 499.784 475.35 500.504 479.985 510.223C482.095 514.65 482.129 515.725 480.314 520.862C479.204 524.005 476.549 527.868 474.416 529.447C470.654 532.232 469.206 532.306 425.85 531.895C401.271 531.663 380.717 531.044 380.173 530.521C379.151 529.536 372.186 513.718 352.886 468.547C346.69 454.047 340.214 439.373 338.495 435.938L335.37 429.694L324.136 429.294C315.402 428.983 312.51 429.365 311.145 431.011ZM269.112 431.344C263.257 432.874 264.891 438.947 282.303 480.342C301.834 526.775 314.526 556.185 315.711 557.753C317.744 560.442 340.17 559.471 341.964 556.617C342.952 555.045 337.281 540.387 320.22 500.418C291.159 432.333 291.56 433.207 288.69 431.671C286.274 430.378 273.617 430.167 269.112 431.344ZM594.855 431.625C590.642 432.266 589.206 433.16 588.894 435.34C588.669 436.918 591.579 445.348 595.361 454.073C599.144 462.797 610.449 489.273 620.483 512.908C630.518 536.542 639.393 556.681 640.204 557.659C641.154 558.804 645.246 559.436 651.701 559.436C663.642 559.436 663.736 559.354 670.855 542.785C701.342 471.829 716.133 435.805 715.479 434.101C714.48 431.495 710.47 430.425 701.702 430.425C689.005 430.425 690.275 428.754 673.991 466.926C665.797 486.134 657.441 505.473 655.42 509.901L651.747 517.953L633.708 475.405C619.142 441.05 615.05 432.62 612.457 431.623C608.991 430.291 603.632 430.291 594.855 431.625ZM261.265 444.418C260.534 446.241 257.799 452.728 255.19 458.834C252.58 464.939 244.986 482.736 238.311 498.381C231.637 514.026 223.737 532.369 220.758 539.144C214.902 552.458 214.104 557.277 217.536 558.594C218.743 559.058 224.348 559.436 229.993 559.436C239.125 559.436 240.472 559.092 242.227 556.314C243.314 554.596 250.237 538.83 257.612 521.277C264.987 503.723 272.23 486.69 273.708 483.427C275.186 480.163 276.396 476.69 276.396 475.71C276.396 473.953 264.288 442.794 263.172 441.677C262.856 441.362 261.998 442.596 261.265 444.418ZM548.272 464.055C547.279 466.525 538.103 488.201 527.88 512.224L509.294 555.901V558.244C511.41 559.958 517.752 560.818 523.199 560.805C536.476 560.805 536.632 559.828 538.694 555.502C540.997 550.671 552.703 523.403 559.606 506.79L565.049 493.691L558.68 477.316C555.176 468.31 551.808 460.631 551.195 460.252C550.581 459.873 549.266 461.584 548.272 464.055Z" fill="url(#paint0_linear_2_1329)"/>
<path d="M301.832 571.206C300.272 571.79 299.145 573.738 297.326 579.222C296.286 582.069 294.727 586.549 293.86 589.186C291.781 594.999 291.781 594.505 293.773 594.505C295.16 594.505 295.42 594.325 295.94 592.827C296.286 591.898 296.719 590.445 297.066 589.59L297.586 588.062H303.824H310.15L310.583 588.691C310.929 589.051 311.363 590.205 311.623 591.284C312.402 594.28 312.662 594.505 315.175 594.505C316.388 594.505 317.254 594.415 317.254 594.295C317.254 593.381 309.196 572.554 308.677 572.03C308.243 571.655 307.637 571.236 307.29 571.086C306.337 570.696 302.958 570.771 301.832 571.206ZM305.557 574.757C305.904 575.191 306.944 577.918 309.11 584.346L309.63 586.114H303.824H298.019L298.539 585.095C298.799 584.541 299.665 582.174 300.359 579.821C301.138 577.469 301.918 575.266 302.178 574.907C302.698 574.143 304.864 574.053 305.557 574.757Z" fill="#ECECEC"/>
<path d="M351.653 571.281C348.187 571.985 346.627 573.528 346.108 576.75C345.588 579.881 346.714 582.264 349.14 583.118C350.526 583.627 350.873 583.642 356.245 583.717C361.617 583.792 361.964 583.807 363.35 584.316C364.65 584.751 364.91 585.26 364.91 587.418C364.91 591.373 363.177 592.258 355.465 592.258C351.046 592.258 348.62 591.973 346.714 591.209C346.021 590.909 345.848 591.149 346.108 592.258C346.281 593.052 346.887 593.846 347.494 594.026C349.66 594.745 358.151 595.059 362.137 594.565C367.422 593.921 369.502 591.958 369.589 587.388C369.589 583.702 368.635 582.204 365.603 581.544C364.217 581.245 363.09 581.17 358.585 581.14C350.873 581.08 350.613 580.945 350.7 577.499C350.7 574.457 351.566 573.738 355.552 573.408C358.151 573.199 362.657 573.273 365.083 573.588C365.949 573.693 367.162 573.978 367.942 574.217C369.155 574.637 369.242 574.622 369.242 573.513C369.242 571.55 366.296 570.831 358.325 570.831C354.339 570.831 353.559 570.891 351.653 571.281Z" fill="#ECECEC"/>
<path d="M383.365 571.011C380.939 571.52 380.506 572.509 375.307 587.688C374.354 590.489 373.401 593.171 373.141 593.636C372.708 594.43 372.794 594.505 374.267 594.505C376.26 594.505 376.694 594.041 377.473 590.909C378.253 587.852 377.733 588.062 385.185 588.062H391.51L392.117 589.89C393.589 594.52 393.503 594.505 395.756 594.505C398.442 594.505 398.442 594.73 395.669 587.028C389.95 571.236 389.864 570.951 386.051 570.861C385.098 570.831 383.885 570.906 383.365 571.011ZM386.138 574.412C386.398 574.487 387.351 576.765 388.304 579.477C389.257 582.174 390.124 584.781 390.297 585.245L390.557 586.114H384.925H379.206L379.813 584.271C380.159 583.267 381.026 580.675 381.719 578.503C382.412 576.345 383.279 574.502 383.539 574.427C384.232 574.232 385.445 574.232 386.138 574.412Z" fill="#ECECEC"/>
<path d="M474.343 570.936C472.87 570.966 471.137 571.101 470.444 571.236C469.578 571.431 469.231 573.693 469.058 582.968L468.885 594.46L475.21 594.55C478.676 594.61 482.661 594.595 484.048 594.535C491.672 594.175 494.012 591.358 494.012 582.683C493.925 571.88 491.759 570.561 474.343 570.936ZM482.315 573.378C488.12 573.753 489.68 575.806 489.68 583.043C489.68 591.119 488.207 592.257 477.809 592.257H473.217V582.998C473.217 577.918 473.564 573.678 473.91 573.588C474.43 573.423 476.596 573.288 479.022 573.244C479.542 573.244 481.015 573.288 482.315 573.378Z" fill="#ECECEC"/>
<path d="M592.528 571.221C590.189 571.625 588.369 572.494 586.723 574.053C585.25 575.371 584.557 587.762 585.77 590.19C586.896 592.362 589.149 593.816 592.268 594.4C594.088 594.73 595.214 594.805 598.68 594.805C602.233 594.805 603.359 594.73 605.698 594.355C608.298 593.921 608.384 593.861 608.384 592.602V591.299L605.698 591.763C601.106 592.587 595.907 592.557 593.308 591.688C590.535 590.759 590.015 589.59 589.582 583.807C589.062 576.51 590.189 574.412 595.041 573.573C597.987 573.079 601.713 573.184 605.612 573.903L608.384 574.427V573.064C608.384 571.73 608.298 571.685 605.698 571.266C601.973 570.666 595.821 570.651 592.528 571.221Z" fill="#ECECEC"/>
<path d="M322.973 571.221C322.713 571.356 322.453 576.645 322.453 582.983V594.505H332.851H343.248V593.306V592.108H335.017H326.786V581.544C326.786 571.281 326.699 570.981 325.139 570.981C324.273 570.981 323.233 571.086 322.973 571.221Z" fill="#ECECEC"/>
<path d="M397.835 571.206C397.835 571.326 398.615 573.558 399.568 576.18C400.434 578.802 402.081 583.267 403.034 586.114C404.94 591.688 406.066 593.786 407.453 594.235C408.059 594.43 409.099 594.505 410.659 594.475L412.998 594.43L414.904 589.261C415.944 586.414 417.764 581.365 418.977 578.023C421.663 570.681 421.663 570.981 419.67 570.981C418.197 570.981 418.024 571.251 417.07 574.083C414.211 582.893 411.352 590.999 411.092 591.059C410.312 591.209 409.186 590.639 408.666 589.935C408.233 589.246 406.066 582.653 403.9 575.701C402.514 571.086 402.427 570.981 399.915 570.981C398.702 570.981 397.835 571.071 397.835 571.206Z" fill="#ECECEC"/>
<path d="M440.811 571.311C440.552 571.505 440.292 576.795 440.292 583.073V594.505H451.556H462.819V593.306V592.108H453.722H444.624V587.762V583.417H452.855H461.087V582.219V581.02H452.855H444.624V577.199V573.378H453.722H462.819V572.18V570.981H452.075C441.678 570.981 441.331 570.996 440.811 571.311Z" fill="#ECECEC"/>
<path d="M500.424 571.341C500.164 571.535 500.077 576.075 500.337 581.424C500.77 591.568 501.117 592.662 504.756 593.876C507.269 594.73 513.247 594.94 516.973 594.295C522.692 593.306 523.558 591.329 523.298 580.196L523.038 571.056L521.132 571.011L519.139 570.966V580.151C519.139 589.336 518.706 590.909 516.02 591.613C513.941 592.183 511.774 592.287 509.348 591.958C505.103 591.388 505.016 591.074 504.669 580.675C504.323 571.251 504.236 570.981 502.677 570.981C501.637 570.981 500.77 571.116 500.424 571.341Z" fill="#ECECEC"/>
<path d="M528.67 572.18V573.378H533.436H538.201V583.942V594.505H540.368H542.534V583.942V573.378H547.732H552.931V572.18V570.981H540.801H528.67V572.18Z" fill="#ECECEC"/>
<path d="M558.736 571.086C558.39 571.131 558.13 576.435 558.13 582.848V594.505H569.394H580.658V593.306V592.108H571.56H562.462V587.762V583.417H570.694H578.925V582.219V581.02H570.694H562.462V577.199V573.378H571.56H580.658V572.18V570.981H570C564.108 570.981 558.996 571.026 558.736 571.086Z" fill="#ECECEC"/>
<path d="M614.97 571.221C614.71 571.356 614.45 576.645 614.45 582.983V594.505H616.616H618.782V589.036V583.567H626.58H634.378V589.051V594.52L636.371 594.475L638.277 594.43L638.537 582.698L638.711 570.981H636.544H634.378V576.075V581.17H626.58H618.782V576.075C618.782 571.176 618.695 570.981 617.136 570.981C616.269 570.981 615.23 571.086 614.97 571.221Z" fill="#ECECEC"/>
<defs>
<linearGradient id="paint0_linear_2_1329" x1="244.64" y1="494.413" x2="715.043" y2="494.413" gradientUnits="userSpaceOnUse">
<stop stop-color="#C29747"/>
<stop offset="0.270833" stop-color="#F3D978"/>
<stop offset="0.526042" stop-color="#E0B453"/>
<stop offset="0.75" stop-color="#F3D978"/>
<stop offset="1" stop-color="#C29747"/>
</linearGradient>
</defs>
</svg>
